<!--?xml version="1.0" standalone="no"?-->
              <svg id="sw-js-blob-svg" viewBox="0 0 100 100" xmlns="http://www.w3.org/2000/svg" version="1.1">
                    <defs> 
                        <linearGradient id="sw-gradient" x1="0" x2="1" y1="1" y2="0">
                            <stop id="stop1" stop-color="rgba(248, 117, 55, 1)" offset="0%"></stop>
                            <stop id="stop2" stop-color="rgba(251, 168, 31, 1)" offset="100%"></stop>
                        </linearGradient>
                    </defs>
                <path fill="url(#sw-gradient)" d="M22,-25.2C28.8,-20.4,34.9,-13.8,37.1,-5.9C39.3,2.1,37.6,11.4,32.7,18.1C27.9,24.9,20,29,11.2,33.3C2.5,37.5,-7.2,41.8,-15.3,39.8C-23.3,37.8,-29.9,29.4,-33.9,20.5C-37.8,11.6,-39.3,2.2,-36.4,-5.1C-33.6,-12.5,-26.5,-17.8,-19.7,-22.6C-13,-27.4,-6.5,-31.6,0.5,-32.2C7.6,-32.9,15.1,-30,22,-25.2Z" width="100%" height="100%" transform="translate(50 50)" stroke-width="0" style="transition: all 0.3s ease 0s;"></path>
              </svg>